<!DOCTYPE svg PUBLIC "-//W3C//DTD SVG 1.1//EN" "http://www.w3.org/Graphics/SVG/1.1/DTD/svg11.dtd">
<!-- Uploaded to: SVG Repo, www.svgrepo.com, Transformed by: SVG Repo Mixer Tools -->
<svg height="800px" width="800px" version="1.1" id="Layer_1" xmlns="http://www.w3.org/2000/svg" xmlns:xlink="http://www.w3.org/1999/xlink" viewBox="0 0 512 512" xml:space="preserve" fill="#000000">
<g id="SVGRepo_bgCarrier" stroke-width="0"/>
<g id="SVGRepo_tracerCarrier" stroke-linecap="round" stroke-linejoin="round"/>
<g id="SVGRepo_iconCarrier"> <path style="fill:#ff0000;" d="M57.494,76.319H7.604v24.95v6.701v23.936v1.014v31.583h18.781c7.277,0,13.177,5.9,13.177,13.177 v154.606c0,7.277-5.9,13.177-13.177,13.177H7.604v31.951v24.95v6.701v24.95h496.792v-24.95v-6.701v-24.95v-31.116h-18.781 c-7.277,0-13.177-5.9-13.177-13.177V178.514c0-7.277,5.9-13.177,13.177-13.177h18.781V132.92v-1.014V107.97v-6.701v-24.95H57.494z M372.06,107.97h32.555v23.936H372.06L372.06,107.97L372.06,107.97z M305.891,107.97h32.555v23.936h-32.555L305.891,107.97 L305.891,107.97z M239.722,107.97h32.555v23.936h-32.555L239.722,107.97L239.722,107.97z M173.554,107.97h32.555v23.936h-32.555 V107.97z M107.386,107.97h32.555v23.936h-32.555V107.97z M41.218,107.97h32.555v23.936H41.218V107.97z M73.773,402.363H41.218 v-24.95h32.555V402.363z M139.941,402.363h-32.555v-24.95h32.555V402.363z M206.11,402.363h-32.555v-24.95h32.555V402.363z M222.565,345.79H85.847c-12.307,0-22.285-9.977-22.285-22.285V186.787c0-12.307,9.977-22.285,22.285-22.285h44.438h92.281 c12.307,0,22.285,9.977,22.285,22.285v136.718C244.85,335.812,234.872,345.79,222.565,345.79z M272.278,402.363h-32.555v-24.95 h32.555V402.363z M338.446,402.363h-32.555v-24.95h32.555L338.446,402.363L338.446,402.363z M404.615,402.363H372.06v-24.95h32.555 V402.363z M288.619,345.79c-12.307,0-22.285-9.977-22.285-22.285V186.787c0-12.307,9.977-22.285,22.285-22.285h45.452h91.266 c12.307,0,22.285,9.977,22.285,22.285v136.718c0,12.307-9.977,22.285-22.285,22.285H288.619z M470.783,402.363h-32.555v-24.95 h32.555V402.363z M470.783,131.906h-32.555V107.97h32.555V131.906z"/> <g style="opacity:0.34;"> <path style="fill:#000000;" d="M206.083,402.343v-3.444c-1.058,1.159-2.113,2.306-3.163,3.444H206.083z"/> <path style="fill:#000000;" d="M382.92,76.299c-1.836,10.659-4.08,21.214-6.697,31.651h28.365v23.936h-32.555 c0,0-8.652,19.185-13.819,32.597h67.096c12.307,0,22.285,9.977,22.285,22.285v136.718c0,12.307-9.977,22.285-22.285,22.285H288.593 c-11.421,0-20.829-8.594-22.127-19.666c-20.296,27.16-41.027,51.615-60.384,72.795v3.444h-3.163 c-10.705,11.609-20.952,22.191-30.427,31.651h331.876v-24.95v-6.701v-24.95v-31.116h-18.78c-7.277,0-13.177-5.9-13.177-13.177 V178.493c0-7.277,5.9-13.177,13.177-13.177h18.781V132.9v-1.014V107.95v-6.701v-24.95H382.92z M272.251,402.343h-32.555v-24.95 h32.555V402.343z M338.42,402.343h-32.555v-24.95h32.555L338.42,402.343L338.42,402.343z M404.589,402.343h-32.555v-24.95h32.555 V402.343z M470.757,402.343h-32.555v-24.95h32.555L470.757,402.343L470.757,402.343z M470.757,131.886h-32.555V107.95h32.555 L470.757,131.886L470.757,131.886z"/> </g> <path d="M404.615,140.345c4.2,0,7.604-3.404,7.604-7.604v-23.936c0-4.2-3.404-7.604-7.604-7.604H372.06 c-4.2,0-7.604,3.404-7.604,7.604v23.936c0,4.2,3.404,7.604,7.604,7.604H404.615z M379.663,116.408h17.347v8.728h-17.347V116.408z"/> <path d="M206.11,140.345c4.199,0,7.604-3.404,7.604-7.604v-23.936c0-4.2-3.405-7.604-7.604-7.604h-32.555 c-4.199,0-7.604,3.404-7.604,7.604v23.936c0,4.2,3.405,7.604,7.604,7.604H206.11z M181.158,116.408h17.347v8.728h-17.347V116.408z"/> <path d="M338.446,140.345c4.2,0,7.604-3.404,7.604-7.604v-23.936c0-4.2-3.404-7.604-7.604-7.604h-32.555 c-4.2,0-7.604,3.404-7.604,7.604v23.936c0,4.2,3.404,7.604,7.604,7.604H338.446z M313.494,116.408h17.347v8.728h-17.347V116.408z"/> <path d="M139.941,140.345c4.199,0,7.604-3.404,7.604-7.604v-23.936c0-4.2-3.405-7.604-7.604-7.604h-32.555 c-4.199,0-7.604,3.404-7.604,7.604v23.936c0,4.2,3.405,7.604,7.604,7.604H139.941z M114.989,116.408h17.347v8.728h-17.347 C114.989,125.136,114.989,116.408,114.989,116.408z"/> <path d="M41.218,140.345h32.555c4.199,0,7.604-3.404,7.604-7.604v-23.936c0-4.2-3.405-7.604-7.604-7.604H41.218 c-4.199,0-7.604,3.404-7.604,7.604v23.936C33.614,136.94,37.018,140.345,41.218,140.345z M48.821,116.408h17.347v8.728H48.821 V116.408z"/> <path d="M430.624,378.247v24.949c0,4.2,3.404,7.604,7.604,7.604h32.555c4.2,0,7.604-3.404,7.604-7.604v-24.949 c0-4.2-3.404-7.604-7.604-7.604h-32.555C434.028,370.643,430.624,374.047,430.624,378.247z M445.832,385.851h17.347v9.741h-17.347 V385.851z"/> <path d="M173.554,370.643c-4.199,0-7.604,3.404-7.604,7.604v24.949c0,4.2,3.405,7.604,7.604,7.604h32.555 c4.199,0,7.604-3.404,7.604-7.604v-24.949c0-4.2-3.405-7.604-7.604-7.604H173.554z M198.506,395.592h-17.347v-9.741h17.347V395.592z "/> <path d="M107.385,370.643c-4.199,0-7.604,3.404-7.604,7.604v24.949c0,4.2,3.405,7.604,7.604,7.604h32.555 c4.199,0,7.604-3.404,7.604-7.604v-24.949c0-4.2-3.405-7.604-7.604-7.604H107.385z M132.337,395.592H114.99v-9.741h17.347V395.592z"/> <path d="M504.396,69.549H57.494c-4.199,0-7.604,3.404-7.604,7.604s3.405,7.604,7.604,7.604h439.298v72.976h-11.176 c-11.46,0-20.782,9.322-20.782,20.781v154.606c0,11.459,9.322,20.781,20.782,20.781h11.176v73.343H15.208v-73.343h11.177 c11.459,0,20.781-9.322,20.781-20.781V178.514c0-11.459-9.322-20.781-20.781-20.781H15.208v-80.58c0-4.2-3.405-7.604-7.604-7.604 S0,72.953,0,77.153v88.184v180.96v88.551c0,4.2,3.405,7.604,7.604,7.604h496.792c4.2,0,7.604-3.404,7.604-7.604v-88.551v-180.96 V77.153C512,72.953,508.596,69.549,504.396,69.549z M26.385,172.94c3.073,0,5.573,2.5,5.573,5.573v154.606 c0,3.073-2.5,5.573-5.573,5.573H15.208V172.94H26.385z M485.616,338.693c-3.073,0-5.574-2.5-5.574-5.573V178.514 c0-3.073,2.501-5.573,5.574-5.573h11.176v165.752H485.616z"/> <path d="M272.278,101.2h-32.555c-4.199,0-7.604,3.404-7.604,7.604v23.936c0,4.2,3.405,7.604,7.604,7.604h32.555 c4.2,0,7.604-3.404,7.604-7.604v-23.936C279.882,104.604,276.478,101.2,272.278,101.2z M264.674,125.137h-17.347v-8.728h17.347 V125.137z"/> <path d="M41.218,370.643c-4.199,0-7.604,3.404-7.604,7.604v24.949c0,4.2,3.405,7.604,7.604,7.604h32.555 c4.199,0,7.604-3.404,7.604-7.604v-24.949c0-4.2-3.405-7.604-7.604-7.604H41.218z M66.169,395.592H48.821v-9.741h17.347V395.592z"/> <path d="M470.783,140.345c4.2,0,7.604-3.404,7.604-7.604v-23.936c0-4.2-3.404-7.604-7.604-7.604h-32.555 c-4.2,0-7.604,3.404-7.604,7.604v23.936c0,4.2,3.404,7.604,7.604,7.604H470.783z M445.832,116.408h17.347v8.728h-17.347V116.408z"/> <path d="M305.89,370.643c-4.2,0-7.604,3.404-7.604,7.604v24.949c0,4.2,3.404,7.604,7.604,7.604h32.555 c4.2,0,7.604-3.404,7.604-7.604v-24.949c0-4.2-3.404-7.604-7.604-7.604H305.89z M330.842,395.592h-17.347v-9.741h17.347 L330.842,395.592L330.842,395.592z"/> <path d="M372.059,370.643c-4.2,0-7.604,3.404-7.604,7.604v24.949c0,4.2,3.404,7.604,7.604,7.604h32.555 c4.2,0,7.604-3.404,7.604-7.604v-24.949c0-4.2-3.404-7.604-7.604-7.604H372.059z M397.011,395.592h-17.347v-9.741h17.347V395.592z"/> <path d="M239.722,370.643c-4.199,0-7.604,3.404-7.604,7.604v24.949c0,4.2,3.405,7.604,7.604,7.604h32.555 c4.2,0,7.604-3.404,7.604-7.604v-24.949c0-4.2-3.404-7.604-7.604-7.604H239.722z M264.674,395.592h-17.347v-9.741h17.347V395.592z"/> <path d="M85.847,172.94c4.199,0,7.604-3.404,7.604-7.604c0-4.2-3.405-7.604-7.604-7.604c-16.48,0-29.889,13.408-29.889,29.888 v136.719c0,16.48,13.408,29.888,29.889,29.888h136.718c16.48,0,29.889-13.408,29.889-29.888V187.62 c0-16.48-13.408-29.888-29.889-29.888h-92.281c-4.199,0-7.604,3.404-7.604,7.604c0,4.2,3.405,7.604,7.604,7.604h92.281 c8.095,0,14.681,6.585,14.681,14.68v136.719c0,8.095-6.586,14.68-14.681,14.68H85.847c-8.095,0-14.681-6.585-14.681-14.68V187.62 C71.166,179.525,77.751,172.94,85.847,172.94z"/> <path d="M288.618,172.94c4.2,0,7.604-3.404,7.604-7.604c0-4.2-3.404-7.604-7.604-7.604c-16.48,0-29.888,13.408-29.888,29.888 v136.719c0,16.48,13.408,29.888,29.888,29.888h136.719c16.48,0,29.888-13.408,29.888-29.888V187.62 c0-16.48-13.408-29.888-29.888-29.888H334.07c-4.2,0-7.604,3.404-7.604,7.604c0,4.2,3.404,7.604,7.604,7.604h91.267 c8.095,0,14.68,6.585,14.68,14.68v136.719c0,8.095-6.585,14.68-14.68,14.68H288.618c-8.095,0-14.68-6.585-14.68-14.68V187.62 C273.938,179.525,280.523,172.94,288.618,172.94z"/> </g>
</svg>